<?xml version="1.0" encoding="UTF-8"?>
<svg id="Layer_1" xmlns="http://www.w3.org/2000/svg" version="1.1" viewBox="0 0 252.6 68.8">
  <!-- Generator: Adobe Illustrator 29.0.0, SVG Export Plug-In . SVG Version: 2.1.0 Build 186)  -->
  <defs>
    <style>
      .st0 {
        letter-spacing: 0em;
      }

      .st1 {
        letter-spacing: 0em;
      }

      .st2 {
        letter-spacing: 0em;
      }

      .st3 {
        font-size: 6.9px;
      }

      .st3, .st4 {
        fill: #808184;
        font-family: ProximaNova-Regular, 'Proxima Nova';
      }

      .st5 {
        letter-spacing: 0em;
      }

      .st6 {
        letter-spacing: 0em;
      }

      .st7 {
        letter-spacing: 0em;
      }

      .st8 {
        letter-spacing: 0em;
      }

      .st9 {
        letter-spacing: 0em;
      }

      .st10 {
        letter-spacing: 0em;
      }

      .st11 {
        letter-spacing: 0em;
      }

      .st12 {
        fill: none;
        stroke: #006938;
        stroke-miterlimit: 10;
        stroke-width: .4px;
      }

      .st13, .st14, .st15 {
        fill: #8b7866;
      }

      .st16 {
        letter-spacing: 0em;
      }

      .st17 {
        letter-spacing: 0em;
      }

      .st18 {
        letter-spacing: 0em;
      }

      .st19 {
        letter-spacing: 0em;
      }

      .st14 {
        font-size: 16.6px;
      }

      .st14, .st15 {
        font-family: Dutch801BT-Roman, 'Dutch801 Rm BT';
      }

      .st20 {
        fill: #1c355e;
      }

      .st15 {
        font-size: 16.8px;
      }

      .st4 {
        font-size: 6.9px;
      }

      .st21 {
        letter-spacing: 0em;
      }
    </style>
  </defs>
  <line class="st12" x1="63.1" y1="34" x2="63.1" y2="35.4"/>
  <text class="st15" transform="translate(84.4 54.2)"><tspan x="0" y="0">MAJESTIC S</tspan><tspan class="st6" x="99.9" y="0">K</tspan><tspan x="111.8" y="0">YLINE</tspan></text>
  <text class="st4" transform="translate(107.2 67.3) scale(1 1.1)"><tspan x="0" y="0">TR</tspan><tspan class="st16" x="8.2" y="0">A</tspan><tspan x="12.4" y="0">VEL &amp; </tspan><tspan class="st9" x="32.5" y="0">L</tspan><tspan class="st18" x="35.8" y="0">OGI</tspan><tspan class="st21" x="47.7" y="0">S</tspan><tspan x="51.8" y="0">TIC SO</tspan><tspan class="st5" x="73.3" y="0">L</tspan><tspan x="76.6" y="0">UTIONS F</tspan><tspan class="st11" x="107" y="0">Z</tspan><tspan x="111" y="0">CO</tspan></text>
  <g>
    <path class="st13" d="M39.4,44.1c0-4.5,1.4-8.5,3.6-11-4,1.1-7.1,5.6-7.1,11s3,9.8,7.1,11c-2.2-2.5-3.6-6.5-3.6-11"/>
    <path class="st13" d="M64.4,38.3c-4.4-6.3-13.9-19.4-13.9-19.4-6.1-8.4-3.1-16.5,3.5-16.5s6.2,7.1,5.4,9c-.1.2-.2.4-.2.7,0,.7.6,1.2,1.2,1.2s.7-.2,1-.5c0,0,0,0,0,0,3.2-3.1,1.7-11.8-7.6-11.8s-11.2,10.4-8.3,16c1,2,3.6,6.5,7.5,11.5,9.8,12.7,14.7,20.7,12.3,26.9,3.9-3.2,3.4-10.9-1-17.2"/>
    <path class="st20" d="M53.3,4c-.2,0,.2,0,0,0,0,3.1-2.3,6.1-4.4,8.6.2.6.4,1.2.6,1.9.9-1.4,1.8-2.1,1.8-2.1v5.4c.1.1.2.3.3.4,0,0,1.6,2.2,3.7,5.2v-11s3.4,2.7,3.4,7.9v7.8c1.4,2,2.9,4,4.2,5.8v-12.6c0-2.8-1.3-4.8-3.4-6.7-2.8-2.6-6.2-6.5-6.2-10.4"/>
    <path class="st20" d="M63,60.2v-4.1h0v-10.1c-1-2.2-2.4-4.6-4.2-7.3v17.3h0v.6c-1.4-.8-3.5,0-3.5,2.3,5.3,0,3.4,8.8,10.6,8.8,0,0-2.9-1.3-2.9-7.6"/>
    <path class="st20" d="M55.4,52.7v-18.8c-1.1-1.4-2.2-3-3.5-4.6-.2-.3-.4-.5-.6-.8v24.1s-1.4.8-1.4,2.2c1.4,0,3.4,1.7,3.4,4h0c0-2.4,2-4,3.4-4,0-1.4-1.4-2.2-1.4-2.2"/>
    <path class="st20" d="M47.9,56.7v-.6s0-32.3,0-32.3c-1.8-2.8-3-4.9-3.5-5.9-.4,1-.7,2-.7,3.2h0s0,34.9,0,34.9h0v4.1c0,6.2-2.9,7.6-2.9,7.6,7.2,0,5.3-8.8,10.6-8.8,0-2.2-2.1-3.1-3.5-2.3"/>
    <path class="st20" d="M93.4,23.5h-15c.2-.6.4-1.1.5-1.7h20c-.8.6-1.4,1.7-5.5,1.7M76.6,26.6h11.9c4.1,0,4.7-1.1,5.5-1.7h-16.2c-.3.6-.7,1.2-1.2,1.7M73.8,29.7h6c4.1,0,4.7-1.1,5.5-1.7h-9.9c-.3.3-1,1.1-1.7,1.7M69.3,26.1c-.4.4-.8.7-1.2,1.1.4.3.9.8,1.3,1.2.6.7.7,1,.9,1.5.3.7,1,.9,1.6.3s.5-1.5,0-2.2c-.4-.6-1.5-1.5-2.5-1.8M67.4,27.6c-.4.3-.9.5-1.3.7.4.5.9,1.2,1.1,2,.3,1,.5,1.8,1.3,1.9.8,0,1.3-.7.9-2.1-.3-1-1.2-1.9-2-2.4M65.5,28.5c-.5.2-1.1.3-1.6.4,0,.7,0,2.3.2,3,.3.8.9,1.3,1.7,1,.8-.3,1-1.3.8-2.4-.2-.9-.7-1.6-1.1-2M77.5,22.5c-.2-1-1.3-1.2-2.3-1.2h-3.6c0,.3-.2.9-.2.9,1.1,0,2.5.2,3.4.6,1.2.4,1.5.9,1.9,1.5.4-.3,1-.9.8-1.8M73.5,23c-.5-.1-1.5-.2-2.2-.3-.1.4-.3.7-.4,1.1,1.1.1,2.4.5,3.1,1,.6.5,1,1.1,1.1,1.7.5-.2,1.3-.9,1-1.9-.4-1.1-1.7-1.5-2.5-1.6M72.1,24.7c-.4-.1-1-.3-1.6-.4-.3.5-.6.9-.9,1.3.7.3,1.6.7,2.1,1.2.9.8,1.1,1.4,1.3,2.1.4-.4,1.4-1,1.2-2.2-.2-1.2-1.4-1.8-2.3-2.1M65.7,21.6c1,.2,2.1.7,2.8,1.5.5.5,1.2.7,1.6.3.6-.6.8-1.7-.3-2-.6-.2-3-.3-4.1.3M64.1,23.1c.8.5,1.7,1.2,2.2,2.2.6,1,1.3,1.2,1.8.8.5-.3,1-1.2,0-2.4-.8-1-2.2-1.6-3.4-1.6-.3.3-.5.5-.7,1M63.8,28.1c1.8,0,2.6-1,2-2.3-.5-1-1.3-1.7-1.9-2-.2.8-.2,3.4,0,4.3M67.7,20.4h29.6c4.1,0,4.7-1.1,5.5-1.7h-35.3c-4.2,0-5.8,2.1-5.8,4s.6,3.6,1.3,4.4c-.6-3.1,0-6.7,4.7-6.7"/>
    <path class="st20" d="M7.9,21.8h20c.1.6.3,1.2.5,1.7h-15c-4.1,0-4.7-1.1-5.5-1.7M29,24.9H12.8c.8.6,1.4,1.7,5.5,1.7h11.9c-.5-.6-.9-1.1-1.2-1.7M31.3,28h-9.9c.8.6,1.4,1.7,5.5,1.7h6c-.7-.6-1.4-1.4-1.7-1.7M35,27.9c-.5.8-.6,1.6,0,2.2s1.3.4,1.6-.3c.2-.5.3-.8.9-1.5.3-.4.8-.9,1.3-1.2-.4-.3-.8-.7-1.2-1.1-1,.4-2.1,1.2-2.5,1.8M37.4,30c-.4,1.3,0,2.1.9,2.1.8,0,1-.9,1.3-1.9.2-.7.7-1.4,1.1-2-.5-.2-.9-.4-1.3-.7-.7.5-1.6,1.4-2,2.4M40.2,30.4c-.3,1.2,0,2.2.8,2.4.8.3,1.4-.3,1.7-1,.3-.7.2-2.2.2-3-.6,0-1.1-.2-1.6-.4-.3.4-.9,1.1-1.1,2M30.1,24.3c.4-.6.7-1.1,1.9-1.5.9-.3,2.4-.5,3.4-.6,0,0-.2-.6-.2-.9h-3.6c-.9,0-2.1.2-2.3,1.2-.1.9.4,1.5.8,1.8M30.8,24.6c-.4,1,.5,1.7,1,1.9.1-.7.5-1.2,1.1-1.7.7-.5,2-.9,3.1-1-.2-.3-.3-.7-.4-1.1-.7,0-1.7.1-2.2.3-.8.2-2.1.6-2.5,1.6M32.4,26.8c-.2,1.2.8,1.8,1.2,2.2.2-.7.4-1.3,1.3-2.1.6-.5,1.5-1,2.1-1.2-.3-.4-.6-.8-.9-1.3-.6,0-1.1.2-1.6.4-.9.3-2.1.9-2.3,2.1M37,21.4c-1.1.3-.9,1.4-.3,2,.4.5,1.1.3,1.6-.3.7-.8,1.8-1.3,2.8-1.5-1.1-.5-3.4-.4-4.1-.3M42,22.2c-1.2,0-2.6.6-3.4,1.6-.9,1.2-.4,2.1,0,2.4.5.3,1.3.2,1.8-.8.6-1,1.4-1.8,2.2-2.2-.2-.4-.4-.7-.7-1M42.9,23.8c-.6.3-1.4,1-1.9,2-.6,1.3.2,2.3,2,2.3.2-1,.2-3.5,0-4.3M43.8,27.1c.6-.8,1.3-2.6,1.3-4.4s-1.6-4-5.8-4H4c.8.6,1.4,1.7,5.5,1.7h29.6c4.7,0,5.3,3.5,4.7,6.7"/>
  </g>
  <g>
    <text class="st14" transform="translate(29.6 -69.3)"><tspan x="0" y="0">MAJESTIC S</tspan><tspan class="st17" x="98.9" y="0">K</tspan><tspan class="st19" x="110.7" y="0">YLINE</tspan></text>
    <text class="st3" transform="translate(52.2 -56.3) scale(1 1.1)"><tspan x="0" y="0">TR</tspan><tspan class="st7" x="8.1" y="0">A</tspan><tspan class="st2" x="12.3" y="0">VEL &amp; </tspan><tspan class="st8" x="32.2" y="0">L</tspan><tspan x="35.5" y="0">OGI</tspan><tspan class="st10" x="47.3" y="0">S</tspan><tspan x="51.3" y="0">TIC SO</tspan><tspan class="st0" x="72.5" y="0">L</tspan><tspan x="75.9" y="0">UTIONS F</tspan><tspan class="st1" x="106" y="0">Z</tspan><tspan x="109.9" y="0">CO</tspan></text>
    <path class="st13" d="M97.5-115c0-4.4,1.4-8.4,3.6-10.9-4,1.1-7,5.6-7,10.9s3,9.7,7,10.9c-2.2-2.5-3.6-6.4-3.6-10.9"/>
    <path class="st13" d="M122.2-120.8c-4.3-6.2-13.7-19.2-13.7-19.2-6.1-8.3-3.1-16.4,3.4-16.4s6.2,7.1,5.4,8.9c-.1.2-.2.4-.2.7,0,.7.6,1.2,1.2,1.2s.7-.2,1-.5c0,0,0,0,0,0,3.2-3.1,1.7-11.6-7.5-11.6s-11.1,10.3-8.2,15.8c1,2,3.5,6.4,7.4,11.4,9.7,12.6,14.6,20.5,12.2,26.6,3.8-3.2,3.3-10.8-1-17"/>
    <path class="st20" d="M111.2-154.7c-.2,0,.2,0,0,0,0,3-2.3,6.1-4.3,8.5.2.6.4,1.2.6,1.8.9-1.4,1.8-2.1,1.8-2.1v5.3c.1.1.2.3.3.4,0,0,1.6,2.2,3.7,5.1v-10.9s3.4,2.7,3.4,7.8v7.7c1.4,1.9,2.8,3.9,4.1,5.8v-12.5c0-2.8-1.3-4.7-3.4-6.7-2.8-2.6-6.2-6.4-6.2-10.3"/>
    <path class="st20" d="M120.8-99.1v-4.1h0v-10c-1-2.1-2.4-4.5-4.2-7.2v17.1h0v.6c-1.4-.8-3.5,0-3.5,2.2,5.3,0,3.3,8.8,10.5,8.8,0,0-2.8-1.3-2.8-7.5"/>
    <path class="st20" d="M113.3-106.5v-18.6c-1.1-1.4-2.2-2.9-3.4-4.5-.2-.3-.4-.5-.6-.8v23.9s-1.3.8-1.3,2.1c1.3,0,3.3,1.7,3.3,4h0c0-2.3,2-4,3.3-4,0-1.3-1.3-2.1-1.3-2.1"/>
    <path class="st20" d="M105.9-102.6v-.6s0-32,0-32c-1.8-2.7-2.9-4.8-3.4-5.8-.4,1-.6,2-.7,3.2h0s0,34.6,0,34.6h0v4.1c0,6.2-2.8,7.5-2.8,7.5,7.2,0,5.2-8.8,10.5-8.8,0-2.2-2.1-3-3.5-2.2"/>
    <path class="st20" d="M150.9-135.4h-14.8c.2-.6.4-1.1.5-1.7h19.8c-.8.6-1.4,1.7-5.5,1.7M134.3-132.3h11.8c4.1,0,4.7-1.1,5.5-1.7h-16.1c-.3.6-.7,1.2-1.2,1.7M131.5-129.3h6c4.1,0,4.7-1.1,5.5-1.7h-9.8c-.3.3-.9,1.1-1.7,1.7M127-132.9c-.4.4-.8.7-1.2,1.1.4.3.9.8,1.3,1.2.6.7.7,1,.9,1.5.3.7,1,.9,1.6.3s.5-1.4,0-2.2c-.4-.6-1.5-1.4-2.5-1.8M125.2-131.4c-.4.3-.9.5-1.3.7.4.5.9,1.2,1.1,1.9.3,1,.5,1.8,1.3,1.8.8,0,1.3-.7.9-2-.3-1-1.2-1.9-2-2.4M123.3-130.5c-.5.2-1.1.3-1.6.4,0,.7,0,2.2.2,2.9.3.8.9,1.3,1.7,1,.8-.3,1-1.3.8-2.4-.2-.9-.7-1.6-1.1-2M135.2-136.4c-.2-1-1.3-1.2-2.2-1.2h-3.6c0,.3-.2.9-.2.9,1.1,0,2.5.2,3.4.6,1.2.4,1.5.9,1.9,1.5.4-.3.9-.9.8-1.8M131.2-135.9c-.5-.1-1.5-.2-2.2-.3-.1.4-.3.7-.4,1.1,1.1.1,2.4.5,3.1,1,.6.5,1,1.1,1.1,1.7.5-.2,1.3-.9.9-1.9-.4-1-1.7-1.4-2.5-1.6M129.8-134.2c-.4-.1-1-.3-1.5-.4-.3.5-.6.9-.9,1.3.7.3,1.6.7,2.1,1.2.9.8,1.1,1.3,1.3,2.1.4-.4,1.4-.9,1.2-2.2-.2-1.2-1.4-1.8-2.2-2.1M123.5-137.3c1,.2,2.1.7,2.8,1.5.5.5,1.2.7,1.6.3.6-.6.8-1.7-.3-2-.6-.2-3-.3-4,.2M121.9-135.8c.8.5,1.6,1.2,2.2,2.2.6,1,1.3,1.2,1.8.8.5-.3,1-1.2,0-2.4-.8-1-2.2-1.6-3.4-1.6-.3.3-.5.5-.7.9M121.6-130.8c1.8,0,2.6-1,2-2.3-.5-1-1.3-1.7-1.9-2-.2.8-.2,3.3,0,4.3M125.5-138.5h29.3c4.1,0,4.7-1.1,5.5-1.7h-35c-4.2,0-5.8,2.1-5.8,3.9s.6,3.6,1.3,4.4c-.6-3.1,0-6.6,4.7-6.6"/>
    <path class="st20" d="M66.3-137.1h19.8c.1.6.3,1.1.5,1.7h-14.8c-4.1,0-4.7-1.1-5.5-1.7M87.2-134h-16.1c.8.6,1.4,1.7,5.5,1.7h11.8c-.4-.5-.8-1.1-1.2-1.7M89.4-131h-9.8c.8.6,1.4,1.7,5.5,1.7h6c-.7-.6-1.4-1.4-1.7-1.7M93.1-131.1c-.5.8-.6,1.6,0,2.2s1.3.4,1.6-.3c.2-.5.3-.8.9-1.5.3-.4.8-.9,1.3-1.2-.4-.3-.8-.7-1.2-1.1-1,.4-2.1,1.2-2.5,1.8M95.5-129c-.4,1.3,0,2.1.9,2,.8,0,1-.9,1.3-1.8.2-.7.7-1.4,1.1-1.9-.5-.2-.9-.4-1.3-.7-.7.5-1.6,1.4-2,2.4M98.3-128.5c-.3,1.1,0,2.1.8,2.4.8.3,1.4-.3,1.7-1,.3-.7.2-2.2.2-2.9-.6,0-1.1-.2-1.6-.4-.3.4-.9,1.1-1.1,2M88.2-134.6c.4-.6.7-1.1,1.9-1.5.9-.3,2.3-.5,3.4-.6,0,0-.2-.6-.2-.9h-3.6c-.9,0-2.1.2-2.2,1.2-.1.9.4,1.5.8,1.8M89-134.3c-.4,1,.5,1.7.9,1.9.1-.6.5-1.2,1.1-1.7.7-.5,2-.9,3.1-1-.2-.3-.3-.7-.4-1.1-.7,0-1.7.1-2.2.3-.8.2-2.1.6-2.5,1.6M90.5-132.2c-.2,1.2.8,1.8,1.2,2.2.2-.7.4-1.3,1.3-2.1.6-.5,1.5-.9,2.1-1.2-.3-.4-.6-.8-.9-1.3-.6,0-1.1.2-1.5.4-.9.3-2.1.8-2.2,2.1M95.1-137.5c-1.1.3-.9,1.4-.3,2,.4.5,1.1.3,1.6-.3.7-.8,1.8-1.3,2.8-1.5-1.1-.5-3.4-.4-4-.2M100-136.7c-1.2,0-2.6.6-3.4,1.6-.9,1.2-.4,2,0,2.4.5.3,1.3.2,1.8-.8.5-1,1.4-1.7,2.2-2.2-.2-.4-.4-.7-.7-.9M100.9-135.1c-.6.3-1.4,1-1.9,2-.6,1.3.2,2.3,2,2.3.2-1,.2-3.5,0-4.3M101.8-131.9c.6-.8,1.3-2.5,1.3-4.4s-1.6-3.9-5.8-3.9h-35c.8.6,1.4,1.7,5.5,1.7h29.3c4.7,0,5.3,3.5,4.7,6.6"/>
  </g>
</svg>