<?xml version="1.0" encoding="UTF-8"?>
<svg id="Layer_1" xmlns="http://www.w3.org/2000/svg" version="1.1" viewBox="0 0 254.6 68.8">
  <!-- Generator: Adobe Illustrator 29.0.0, SVG Export Plug-In . SVG Version: 2.1.0 Build 186)  -->
  <defs>
    <style>
      .st0 {
        fill: #808285;
      }

      .st1 {
        fill: #8b7866;
      }

      .st2 {
        fill: #1c355e;
      }
    </style>
  </defs>
  <g>
    <path class="st1" d="M83.6,54.8v-.4c.6,0,1-.1,1.3-.4.2-.3.3-.8.3-1.7v-7.3c0-.8-.1-1.3-.3-1.5-.2-.2-.6-.3-1.3-.4v-.4h3.5l4.2,9.2,4.2-9.2h3.5v.4c-.7,0-1.1.1-1.3.3s-.3.7-.3,1.4v7.7c0,.7.1,1.2.3,1.4s.7.3,1.3.4v.4h-5.2v-.4c.7,0,1.1-.2,1.3-.4s.3-.7.3-1.4v-7.8l-4.5,10h-.3l-4.6-10v7.6c0,.8.1,1.3.3,1.6.2.2.7.4,1.4.4v.4h-4.1Z"/>
    <path class="st1" d="M99.4,54.8v-.4c.4,0,.7-.1,1-.3.3-.2.5-.6.8-1.2l4.9-10.3h.4l4.8,10.5c.1.3.2.5.4.6.1.2.2.3.4.4.1.1.3.2.4.2s.3,0,.6,0v.3h-5v-.4c.5,0,.9,0,1-.2.2-.1.3-.3.3-.6s0-.2,0-.3c0,0,0-.2,0-.3l-1-2.3h-5.1l-.8,1.9c0,.2-.2.4-.2.6s0,.3,0,.4c0,.2.1.4.3.6.2.1.5.2,1,.2h.1v.4h-3.9ZM103.3,50.1h4.6l-2.2-5-2.4,5Z"/>
    <path class="st1" d="M120,42.8v.4c-.7,0-1.1.1-1.4.4s-.4.7-.4,1.4v6.4c0,1.2-.3,2.1-.8,2.8-.5.6-1.3,1-2.3,1s-1.2-.2-1.6-.5c-.4-.3-.6-.7-.6-1.2s0-.4.2-.5c.2-.1.3-.2.6-.2s.4,0,.6.2c.2.1.3.3.4.6,0,0,0,0,0,.1.2.5.5.8.8.8s.5,0,.6-.3c.1-.2.2-.4.2-.8v-8.4c0-.7-.1-1.2-.4-1.4-.2-.2-.7-.3-1.4-.3v-.4h5.4Z"/>
    <path class="st1" d="M120.8,54.8v-.4c.7,0,1.2-.1,1.4-.3s.4-.6.4-1.3v-8.1c0-.6-.1-1-.3-1.2s-.7-.3-1.4-.4v-.4h10.3l.2,2.7h-.4c-.1-.8-.4-1.3-.7-1.6s-.9-.4-1.8-.4h-3c-.4,0-.6,0-.7.1-.1,0-.2.3-.2.7v3.2c0,.2,0,.4,0,.5,0,0,.2.1.5.1h2.4c.9,0,1.5-.1,1.8-.4s.4-.7.5-1.3h.4v4.1h-.4c0-.7-.2-1.2-.5-1.4-.3-.2-.9-.4-1.8-.4h-2.4c-.2,0-.4,0-.5,0,0,0-.1.2-.1.5v3.6c0,.4,0,.7.2.9.1.1.3.2.7.2h2.8c1.1,0,2-.2,2.5-.5.5-.3.9-1,1.3-1.9l.3.2-.9,2.9h-10.5Z"/>
    <path class="st1" d="M133.8,55l-.7-3.9h.4c.4,1,.9,1.8,1.6,2.4s1.3.9,2,.9,1.2-.2,1.6-.6c.4-.4.6-.9.6-1.5s-.1-.9-.4-1.2-.7-.8-1.3-1.1l-1.9-1.1c-.8-.5-1.4-1-1.7-1.5-.4-.5-.5-1.1-.5-1.7s.3-1.7,1-2.2c.6-.6,1.5-.9,2.5-.9s1,0,1.5.3.9.3,1,.3.2,0,.3-.1c0,0,.1-.2.1-.4h.3l.4,3.6h-.4c-.3-1-.8-1.7-1.3-2.2-.5-.5-1.2-.8-1.9-.8s-1.1.2-1.5.5c-.4.3-.6.8-.6,1.3s.1.8.4,1.1c.3.3.7.7,1.3,1.1l2.1,1.2c.9.5,1.5,1,1.8,1.5s.5,1.1.5,1.8c0,1-.3,1.9-1,2.5-.7.6-1.6.9-2.8.9s-1.1,0-1.7-.2c-.6-.2-.9-.2-1-.2-.2,0-.3,0-.4.1,0,0-.2.2-.2.3h-.3Z"/>
    <path class="st1" d="M145,54.8v-.4c.8,0,1.2-.1,1.5-.3s.3-.7.3-1.5v-8.6c0-.3,0-.4-.1-.5,0,0-.3,0-.6,0h-.3c-1.2,0-1.9.2-2.4.5-.4.3-.7,1-.8,1.9h-.4v-3.1h11v3.1h-.4c0-.9-.3-1.6-.7-1.9-.4-.3-1.3-.5-2.6-.5s-.6,0-.7,0c0,0-.1.2-.1.4v8.5c0,.9.1,1.4.4,1.6.2.2.7.3,1.5.3v.4s-5.6,0-5.6,0Z"/>
    <path class="st1" d="M154,54.8v-.4c.7,0,1.2-.1,1.4-.3.2-.2.4-.6.4-1.3v-8.1c0-.6-.1-1-.4-1.3-.2-.2-.7-.3-1.4-.4v-.4h5.5v.4c-.7,0-1.2.1-1.4.4s-.3.6-.3,1.2v8.1c0,.6.1,1,.4,1.3s.7.3,1.4.4v.4s-5.5,0-5.5,0Z"/>
    <path class="st1" d="M171.9,52l.3.3c-.7.9-1.4,1.6-2.3,2.1s-1.8.7-2.8.7c-1.9,0-3.4-.6-4.6-1.7-1.1-1.1-1.7-2.6-1.7-4.5s.6-3.4,1.8-4.6c1.2-1.2,2.7-1.8,4.6-1.8s1.4.1,2.2.3,1.2.3,1.3.3c.2,0,.3,0,.4-.2s.2-.3.2-.4h.3l.3,3.9h-.4c-.3-1.1-.9-1.9-1.5-2.5-.7-.6-1.5-.8-2.5-.8s-2.5.5-3.3,1.5c-.8,1-1.3,2.4-1.3,4.1s.4,3,1.3,4c.8,1,1.9,1.6,3.2,1.6s1.7-.2,2.4-.5c.7-.4,1.4-1,2.1-1.8Z"/>
    <path class="st1" d="M178,55l-.7-3.9h.4c.4,1,.9,1.8,1.6,2.4s1.3.9,2,.9,1.2-.2,1.6-.6c.4-.4.6-.9.6-1.5s-.1-.9-.4-1.2-.7-.8-1.3-1.1l-1.9-1.1c-.8-.5-1.4-1-1.7-1.5-.4-.5-.5-1.1-.5-1.7s.3-1.7,1-2.2c.6-.6,1.5-.9,2.5-.9s1,0,1.5.3.9.3,1,.3.2,0,.3-.1c0,0,.1-.2.1-.4h.3l.4,3.6h-.4c-.3-1-.8-1.7-1.3-2.2-.5-.5-1.2-.8-1.9-.8s-1.1.2-1.5.5c-.4.3-.6.8-.6,1.3s.1.8.4,1.1c.3.3.7.7,1.3,1.1l2.1,1.2c.9.5,1.5,1,1.8,1.5s.5,1.1.5,1.8c0,1-.3,1.9-1,2.5-.7.6-1.6.9-2.8.9s-1.1,0-1.7-.2c-.6-.2-.9-.2-1-.2-.2,0-.3,0-.4.1,0,0-.2.2-.2.3h-.3Z"/>
    <path class="st1" d="M186.6,54.8v-.4h.2c.6,0,1-.1,1.2-.4s.4-.6.4-1.2v-7.9c0-.7-.1-1.2-.4-1.4s-.7-.4-1.4-.4v-.4s5.4,0,5.4,0v.4c-.7,0-1.1.1-1.4.4s-.4.7-.4,1.4v3.7c0,0,.2,0,.3,0s.2-.1.3-.3l3-3c.4-.4.6-.7.8-.9.2-.3.3-.5.3-.6s0-.3-.3-.4c-.2,0-.5-.1-.9-.2v-.4h4.7v.4c-.6,0-1.1.1-1.5.4-.5.2-.9.6-1.5,1.1l-3.2,3.3,5.2,5.3c.4.4.8.7,1.1.9.3.2.6.3.9.3v.4s-5.6,0-5.6,0v-.4c.6,0,1-.1,1.1-.2.1,0,.2-.2.2-.3s0-.2,0-.3c0-.1-.2-.2-.4-.4l-3.8-3.9s0,0,0,0c-.2-.2-.3-.2-.5-.2s0,0,0,0,0,0,0,0v3.8c0,.6.1,1,.3,1.2.2.2.7.3,1.3.3v.4h-5.3Z"/>
    <path class="st1" d="M202.7,54.8v-.4h0c.6,0,1-.1,1.3-.3.2-.2.4-.6.4-1.2v-3.3l-3.9-5.5c-.2-.3-.5-.6-.8-.7-.3-.2-.6-.2-1.1-.3v-.4h5.5v.4c-.5,0-.9.1-1.1.2s-.3.2-.3.4.1.4.3.7c0,0,0,0,0,0l2.9,4.1,2.4-3.7c.2-.4.4-.6.5-.8,0-.1.1-.3.1-.3,0-.2,0-.3-.3-.4-.2,0-.5-.2-1-.2v-.4h3.8v.4c-.4,0-.7.1-.9.3-.3.2-.6.6-1,1.1l-3.2,4.8v3.6c0,.5.1.9.4,1.1.2.2.7.3,1.4.3v.4h-5.5Z"/>
    <path class="st1" d="M212.1,54.8v-.4h0c.6,0,1.1-.1,1.3-.4.2-.2.3-.7.3-1.4v-7.8c0-.7-.1-1.2-.3-1.3-.2-.2-.7-.3-1.4-.3v-.4s5.5,0,5.5,0v.4h0c-.6,0-1.1.1-1.3.4-.2.2-.4.7-.4,1.3v8.1c0,.5,0,.9.2,1,.2.1.5.2,1,.2h2.1c.9,0,1.6-.2,2.2-.6s1-1,1.4-1.9h.4l-1,3.2h-9.9Z"/>
    <path class="st1" d="M223.4,54.8v-.4c.7,0,1.2-.1,1.4-.3.2-.2.4-.6.4-1.3v-8.1c0-.6-.1-1-.4-1.3-.2-.2-.7-.3-1.4-.4v-.4h5.5v.4c-.7,0-1.2.1-1.4.4s-.3.6-.3,1.2v8.1c0,.6.1,1,.4,1.3s.7.3,1.4.4v.4s-5.5,0-5.5,0Z"/>
    <path class="st1" d="M232.4,52.7c0,.7.1,1.1.3,1.3.2.2.7.3,1.4.4v.4h-4.3v-.4c.7,0,1.2-.2,1.4-.4s.3-.6.3-1.3v-8.4c-.2-.4-.5-.7-.8-.9-.3-.2-.6-.3-1-.3v-.4h3.1l7.1,8.5v-6.5c0-.7-.1-1.1-.3-1.3-.2-.2-.7-.3-1.4-.4v-.4h4.3v.4c-.7,0-1.2.2-1.4.4-.2.2-.3.6-.3,1.3v10h-.4l-8.1-9.7v7.7Z"/>
    <path class="st1" d="M243.2,54.8v-.4c.7,0,1.2-.1,1.4-.3s.4-.6.4-1.3v-8.1c0-.6-.1-1-.3-1.2s-.7-.3-1.4-.4v-.4h10.3l.2,2.7h-.4c-.1-.8-.4-1.3-.7-1.6s-.9-.4-1.8-.4h-3c-.4,0-.6,0-.7.1-.1,0-.2.3-.2.7v3.2c0,.2,0,.4,0,.5,0,0,.2.1.5.1h2.4c.9,0,1.5-.1,1.8-.4s.4-.7.5-1.3h.4v4.1h-.4c0-.7-.2-1.2-.5-1.4-.3-.2-.9-.4-1.8-.4h-2.4c-.2,0-.4,0-.5,0,0,0-.1.2-.1.5v3.6c0,.4,0,.7.2.9.1.1.3.2.7.2h2.8c1.1,0,2-.2,2.5-.5.5-.3.9-1,1.3-1.9l.3.2-.9,2.9h-10.5Z"/>
  </g>
  <g>
    <path class="st0" d="M108.3,68.3v-4.6h-1.5v-.6h3.6v.6h-1.5v4.6h-.6Z"/>
    <path class="st0" d="M113.9,68.3l-1.2-2.1h-1v2.1h-.6v-5.2h1.9c.9,0,1.5.6,1.5,1.6s-.6,1.4-1.2,1.5l1.3,2.1h-.7ZM114,64.7c0-.6-.4-1-1-1h-1.3v2h1.3c.6,0,1-.4,1-1Z"/>
    <path class="st0" d="M119,68.3l-.4-1.1h-2.4l-.4,1.1h-.7l1.9-5.2h.7l1.9,5.2h-.7ZM117.3,63.8l-1,2.8h2l-1-2.8Z"/>
    <path class="st0" d="M121.3,68.3l-1.9-5.2h.7l1.6,4.5,1.6-4.5h.7l-1.9,5.2h-.7Z"/>
    <path class="st0" d="M124.6,68.3v-5.2h3.1v.6h-2.5v1.7h2.5v.6h-2.5v1.8h2.5v.6h-3.1Z"/>
    <path class="st0" d="M128.7,68.3v-5.2h.6v4.6h2.2v.6h-2.8Z"/>
    <path class="st0" d="M137.3,68.3c-.1-.1-.3-.3-.5-.5-.4.4-.8.6-1.4.6-.8,0-1.5-.5-1.5-1.4s.5-1.2,1.1-1.5c-.2-.4-.4-.8-.4-1.2,0-.7.5-1.2,1.2-1.2s1.1.4,1.1,1-.6,1.1-1.2,1.5c.2.3.4.5.6.7.2.2.4.5.6.7.3-.4.4-.9.5-1.2l.5.2c-.2.4-.4.9-.7,1.3.3.3.6.6.9,1h-.7ZM136.4,67.4c-.3-.3-.5-.6-.7-.8-.2-.2-.4-.5-.6-.8-.4.3-.7.6-.7,1.1s.5,1,1,1,.7-.2,1-.5ZM135.4,65.2c.5-.3.9-.6.9-1.1s-.2-.6-.6-.6-.7.3-.7.8.1.6.3.9Z"/>
    <path class="st0" d="M140.6,68.3v-5.2h.6v4.6h2.2v.6h-2.8Z"/>
    <path class="st0" d="M143.8,65.7c0-1.5,1-2.7,2.4-2.7s2.4,1.1,2.4,2.7-1,2.7-2.4,2.7-2.4-1.1-2.4-2.7ZM148,65.7c0-1.2-.7-2.1-1.8-2.1s-1.8.9-1.8,2.1.7,2.1,1.8,2.1,1.8-.9,1.8-2.1Z"/>
    <path class="st0" d="M149.3,65.7c0-1.6,1.1-2.7,2.5-2.7s1.4.4,1.9,1l-.5.3c-.3-.4-.8-.7-1.4-.7-1,0-1.8.9-1.8,2.1s.8,2.1,1.8,2.1,1-.3,1.3-.6v-1.1h-1.6v-.6h2.2v1.9c-.4.5-1.1.9-1.9.9-1.4,0-2.5-1.1-2.5-2.7Z"/>
    <path class="st0" d="M154.6,68.3v-5.2h.6v5.2h-.6Z"/>
    <path class="st0" d="M156.1,67.6l.4-.5c.3.4.8.7,1.5.7s1.1-.5,1.1-.9c0-1.3-2.8-.6-2.8-2.4s.7-1.4,1.6-1.4,1.3.3,1.7.7l-.4.5c-.4-.4-.9-.6-1.4-.6s-1,.3-1,.8c0,1.2,2.8.5,2.8,2.4s-.5,1.5-1.8,1.5-1.4-.3-1.8-.8Z"/>
    <path class="st0" d="M161.7,68.3v-4.6h-1.5v-.6h3.6v.6h-1.5v4.6h-.6Z"/>
    <path class="st0" d="M164.6,68.3v-5.2h.6v5.2h-.6Z"/>
    <path class="st0" d="M166.1,65.7c0-1.6,1.1-2.7,2.5-2.7s1.4.4,1.8,1l-.5.3c-.3-.4-.8-.8-1.3-.8-1,0-1.8.9-1.8,2.1s.8,2.1,1.8,2.1,1-.3,1.3-.8l.5.3c-.4.6-1,1-1.8,1-1.4,0-2.5-1.1-2.5-2.7Z"/>
    <path class="st0" d="M172.7,67.6l.4-.5c.3.4.8.7,1.5.7s1.1-.5,1.1-.9c0-1.3-2.8-.6-2.8-2.4s.7-1.4,1.6-1.4,1.3.3,1.7.7l-.4.5c-.4-.4-.9-.6-1.4-.6s-1,.3-1,.8c0,1.2,2.8.5,2.8,2.4s-.5,1.5-1.8,1.5-1.4-.3-1.8-.8Z"/>
    <path class="st0" d="M177,65.7c0-1.5,1-2.7,2.4-2.7s2.4,1.1,2.4,2.7-1,2.7-2.4,2.7-2.4-1.1-2.4-2.7ZM181.2,65.7c0-1.2-.7-2.1-1.8-2.1s-1.8.9-1.8,2.1.7,2.1,1.8,2.1,1.8-.9,1.8-2.1Z"/>
    <path class="st0" d="M182.7,68.3v-5.2h.6v4.6h2.2v.6h-2.8Z"/>
    <path class="st0" d="M186.2,66.3v-3.2h.6v3.2c0,.9.5,1.5,1.4,1.5s1.4-.6,1.4-1.5v-3.2h.6v3.2c0,1.3-.7,2.1-2,2.1s-2-.8-2-2.1Z"/>
    <path class="st0" d="M192.4,68.3v-4.6h-1.5v-.6h3.6v.6h-1.5v4.6h-.6Z"/>
    <path class="st0" d="M195.3,68.3v-5.2h.6v5.2h-.6Z"/>
    <path class="st0" d="M196.8,65.7c0-1.5,1-2.7,2.4-2.7s2.4,1.1,2.4,2.7-1,2.7-2.4,2.7-2.4-1.1-2.4-2.7ZM200.9,65.7c0-1.2-.7-2.1-1.8-2.1s-1.8.9-1.8,2.1.7,2.1,1.8,2.1,1.8-.9,1.8-2.1Z"/>
    <path class="st0" d="M205.9,68.3l-2.8-4.1v4.1h-.6v-5.2h.6l2.8,4v-4h.6v5.2h-.6Z"/>
    <path class="st0" d="M207.3,67.6l.4-.5c.3.4.8.7,1.5.7s1.1-.5,1.1-.9c0-1.3-2.8-.6-2.8-2.4s.7-1.4,1.6-1.4,1.3.3,1.7.7l-.4.5c-.4-.4-.9-.6-1.4-.6s-1,.3-1,.8c0,1.2,2.8.5,2.8,2.4s-.5,1.5-1.8,1.5-1.4-.3-1.8-.8Z"/>
    <path class="st0" d="M213.6,68.3v-5.2h3.1v.6h-2.5v1.7h2.5v.6h-2.5v2.4h-.6Z"/>
    <path class="st0" d="M217.3,68.3v-.5l2.7-4.1h-2.7v-.6h3.4v.5l-2.7,4.1h2.7v.6h-3.5Z"/>
    <path class="st0" d="M221.4,65.7c0-1.6,1.1-2.7,2.5-2.7s1.4.4,1.8,1l-.5.3c-.3-.4-.8-.8-1.3-.8-1,0-1.8.9-1.8,2.1s.8,2.1,1.8,2.1,1-.3,1.3-.8l.5.3c-.4.6-1,1-1.8,1-1.4,0-2.5-1.1-2.5-2.7Z"/>
    <path class="st0" d="M226.3,65.7c0-1.5,1-2.7,2.4-2.7s2.4,1.1,2.4,2.7-1,2.7-2.4,2.7-2.4-1.1-2.4-2.7ZM230.4,65.7c0-1.2-.7-2.1-1.8-2.1s-1.8.9-1.8,2.1.7,2.1,1.8,2.1,1.8-.9,1.8-2.1Z"/>
  </g>
  <g>
    <path class="st1" d="M36.6,44.4c0-4.6,1.5-8.7,3.7-11.3-4.2,1.2-7.3,5.8-7.3,11.3s3.1,10.1,7.3,11.3c-2.3-2.6-3.7-6.7-3.7-11.3"/>
    <path class="st1" d="M62.4,38.4c-4.5-6.5-14.3-20-14.3-20-6.3-8.7-3.2-17.1,3.6-17.1s6.4,7.4,5.6,9.3c-.1.2-.2.4-.2.7,0,.7.6,1.3,1.3,1.3s.8-.2,1-.5c0,0,0,0,0,0,3.3-3.2,1.8-12.1-7.8-12.1s-11.5,10.7-8.6,16.5c1.1,2.1,3.7,6.7,7.7,11.9,10.1,13.1,15.2,21.4,12.7,27.7,4-3.3,3.5-11.3-1-17.8"/>
    <path class="st2" d="M50.9,3c-.2,0,.2,0,0,0,0,3.2-2.4,6.3-4.5,8.8.2.6.4,1.3.6,1.9.9-1.5,1.8-2.2,1.8-2.2v5.5c.1.2.2.3.3.5,0,0,1.7,2.3,3.9,5.3v-11.3s3.5,2.8,3.5,8.2v8c1.5,2,2.9,4.1,4.3,6v-13c0-2.9-1.3-4.9-3.5-7-2.9-2.7-6.4-6.7-6.4-10.7"/>
    <path class="st2" d="M61,61v-4.2h0v-10.4c-1-2.2-2.5-4.7-4.4-7.5v17.9h0v.6c-1.4-.8-3.6,0-3.6,2.3,5.5,0,3.5,9.1,10.9,9.1,0,0-3-1.4-3-7.8"/>
    <path class="st2" d="M53.1,53.3v-19.4c-1.1-1.5-2.3-3.1-3.6-4.7-.2-.3-.4-.5-.6-.8v24.9s-1.4.8-1.4,2.2c1.4,0,3.5,1.7,3.5,4.2h0c0-2.4,2.1-4.2,3.5-4.2,0-1.4-1.4-2.2-1.4-2.2"/>
    <path class="st2" d="M45.4,57.4v-.6s0-33.3,0-33.3c-1.9-2.9-3-5-3.6-6-.4,1-.7,2.1-.7,3.3h0s0,36.1,0,36.1h0v4.2c0,6.4-3,7.8-3,7.8,7.5,0,5.4-9.1,10.9-9.1,0-2.3-2.2-3.2-3.6-2.3"/>
    <path class="st2" d="M92.3,23.1h-15.5c.2-.6.4-1.2.5-1.8h20.7c-.8.6-1.4,1.8-5.7,1.8M75,26.3h12.3c4.3,0,4.9-1.2,5.7-1.8h-16.7c-.3.7-.8,1.2-1.2,1.8M72.1,29.5h6.2c4.3,0,4.9-1.2,5.7-1.8h-10.2c-.3.3-1,1.2-1.8,1.8M67.4,25.8c-.4.4-.8.8-1.3,1.1.4.3,1,.8,1.3,1.2.6.7.7,1.1.9,1.6.3.7,1.1.9,1.7.3s.5-1.5,0-2.3c-.4-.7-1.5-1.5-2.6-1.9M65.5,27.3c-.4.3-.9.5-1.4.7.4.5.9,1.3,1.1,2,.3,1,.5,1.9,1.4,1.9.8,0,1.3-.8.9-2.1-.3-1-1.3-2-2-2.5M63.5,28.2c-.5.2-1.1.3-1.7.4,0,.8,0,2.3.2,3.1.3.8.9,1.4,1.8,1.1.9-.3,1.1-1.3.8-2.5-.2-.9-.8-1.6-1.1-2M75.9,22.1c-.2-1.1-1.4-1.3-2.3-1.3h-3.8c0,.3-.2.9-.2,1,1.1,0,2.6.2,3.6.6,1.3.5,1.5,1,1.9,1.6.4-.3,1-.9.8-1.8M71.7,22.6c-.5-.1-1.6-.3-2.3-.3-.1.4-.3.8-.4,1.1,1.1.2,2.5.5,3.2,1.1.7.5,1,1.1,1.2,1.8.5-.2,1.4-.9,1-2-.4-1.1-1.8-1.5-2.6-1.7M70.3,24.3c-.4-.1-1-.3-1.6-.4-.3.5-.6.9-.9,1.4.7.3,1.6.7,2.2,1.3.9.8,1.2,1.4,1.4,2.2.5-.4,1.4-1,1.3-2.3-.2-1.3-1.4-1.8-2.3-2.2M63.7,21.2c1,.2,2.1.8,2.9,1.6.5.6,1.2.7,1.6.3.6-.7.9-1.8-.3-2.1-.7-.2-3.1-.3-4.2.3M62.1,22.8c.8.5,1.7,1.3,2.3,2.3.6,1,1.4,1.2,1.9.8.5-.4,1-1.2,0-2.5-.8-1-2.3-1.6-3.5-1.6-.3.3-.5.5-.7,1M61.8,27.9c1.8,0,2.7-1,2-2.4-.5-1.1-1.3-1.8-2-2.1-.2.8-.2,3.5,0,4.5M65.8,19.9h30.6c4.3,0,4.9-1.2,5.7-1.8h-36.5c-4.4,0-6,2.2-6,4.1s.7,3.7,1.3,4.6c-.6-3.2,0-6.9,4.9-6.9"/>
    <path class="st2" d="M4.1,21.4h20.7c.1.6.3,1.2.5,1.8h-15.5c-4.3,0-4.9-1.2-5.7-1.8M25.8,24.5H9.1c.8.6,1.4,1.8,5.7,1.8h12.3c-.5-.6-.9-1.1-1.2-1.8M28.2,27.7h-10.2c.8.6,1.4,1.8,5.7,1.8h6.2c-.8-.6-1.5-1.4-1.8-1.8M32,27.7c-.5.8-.6,1.7,0,2.3s1.4.5,1.7-.3c.2-.5.3-.9.9-1.6.3-.4.9-.9,1.3-1.2-.5-.3-.9-.7-1.3-1.1-1.1.4-2.2,1.2-2.6,1.9M34.5,29.8c-.4,1.4,0,2.1.9,2.1.9,0,1.1-.9,1.4-1.9.2-.8.7-1.5,1.1-2-.5-.2-.9-.4-1.4-.7-.8.6-1.7,1.5-2,2.5M37.4,30.3c-.3,1.2,0,2.2.8,2.5.9.3,1.5-.3,1.8-1.1.3-.7.2-2.3.2-3.1-.6-.1-1.2-.2-1.7-.4-.3.4-.9,1.2-1.1,2M26.9,24c.4-.6.7-1.1,1.9-1.6,1-.4,2.4-.6,3.6-.6,0,0-.2-.7-.2-1h-3.8c-1,0-2.2.2-2.3,1.3-.1.9.4,1.5.8,1.8M27.7,24.3c-.4,1,.5,1.7,1,2,.1-.7.5-1.3,1.2-1.8.7-.6,2.1-.9,3.2-1.1-.2-.4-.3-.7-.4-1.1-.7,0-1.8.1-2.3.3-.8.2-2.2.6-2.6,1.7M29.4,26.5c-.2,1.3.8,1.9,1.3,2.3.2-.8.5-1.3,1.4-2.2.6-.5,1.5-1,2.2-1.3-.3-.4-.7-.9-.9-1.4-.6,0-1.2.2-1.6.4-.9.3-2.2.9-2.3,2.2M34.1,20.9c-1.2.3-.9,1.4-.3,2.1.4.5,1.1.3,1.6-.3.7-.8,1.9-1.4,2.9-1.6-1.1-.5-3.5-.4-4.2-.3M39.3,21.8c-1.2,0-2.7.6-3.5,1.6-1,1.2-.5,2.1,0,2.5.5.4,1.3.2,1.9-.8.6-1,1.4-1.8,2.3-2.3-.2-.4-.4-.7-.7-1M40.2,23.4c-.6.3-1.5,1-2,2.1-.6,1.4.2,2.4,2,2.4.2-1,.2-3.7,0-4.5M41.1,26.8c.7-.9,1.3-2.6,1.3-4.6s-1.7-4.1-6-4.1H0c.8.6,1.4,1.8,5.7,1.8h30.6c4.9,0,5.5,3.6,4.9,6.9"/>
  </g>
</svg>